<svg xmlns="http://www.w3.org/2000/svg" viewBox="0 0 512 512">
  <defs>
    <radialGradient id="glow" cx="50%" cy="50%" r="50%" fx="50%" fy="50%">
      <stop offset="0%" style="stop-color:#FFF5E6;stop-opacity:1" />
      <stop offset="100%" style="stop-color:#F7F4EB;stop-opacity:0" />
    </radialGradient>
    <filter id="blur">
      <feGaussianBlur in="SourceGraphic" stdDeviation="10" />
    </filter>
  </defs>
  
  <!-- Background Glow -->
  <circle cx="256" cy="256" r="240" fill="url(#glow)" />
  
  <!-- Suitcase Body -->
  <rect x="106" y="146" width="300" height="240" rx="40" ry="40" fill="none" stroke="#E6B98D" stroke-width="20" />
  
  <!-- Suitcase Handle -->
  <path d="M196 146 V 116 A 20 20 0 0 1 216 96 H 296 A 20 20 0 0 1 316 116 V 146" fill="none" stroke="#E6B98D" stroke-width="20" stroke-linecap="round" />

  <!-- Map Paper Curl (Bottom Right) -->
  <path d="M 366 386 Q 406 386 406 346" fill="none" stroke="#D4A373" stroke-width="15" stroke-linecap="round" />
  <path d="M 330 386 H 146" fill="none" stroke="#D4A373" stroke-width="15" stroke-linecap="round" />

  <!-- Location Pin (Center) -->
  <path d="M256 190 A 60 60 0 0 0 196 250 C 196 290 256 350 256 350 C 256 350 316 290 316 250 A 60 60 0 0 0 256 190 Z" fill="#F4A261" />
  <circle cx="256" cy="250" r="20" fill="#FFF5E6" />
</svg>