<svg xmlns="http://www.w3.org/2000/svg" viewBox="0 0 512 512">
  <defs>
    <linearGradient id="zenGradient" x1="0%" y1="0%" x2="100%" y2="100%">
      <stop offset="0%" style="stop-color:#D4A373;stop-opacity:1" />
      <stop offset="100%" style="stop-color:#B08968;stop-opacity:1" />
    </linearGradient>
  </defs>
  
  <!-- Background: Zen Beige -->
  <rect width="512" height="512" rx="128" ry="128" fill="#F7F4EB"/>
  
  <!-- Enso (Zen Circle) Brush Stroke Style -->
  <path d="M256,432 C158.8,432 80,353.2 80,256 C80,158.8 158.8,80 256,80 C275,80 290,65 290,65 C290,65 275,50 256,50 C142.2,50 50,142.2 50,256 C50,369.8 142.2,462 256,462 C369.8,462 462,369.8 462,256 C462,235 445,235 445,235 C445,235 462,235 462,256 C462,370 370,432 256,432 Z" 
        fill="url(#zenGradient)" opacity="0.9"/>

  <!-- Minimalist Paper Plane -->
  <path d="M160,260 L360,160 L260,360 L230,290 L160,260 Z" fill="#4A4A4A"/>
  
  <!-- Trail/Path -->
  <path d="M360,160 L230,290" stroke="#F7F4EB" stroke-width="8" stroke-linecap="round"/>
</svg>